<svg xmlns="http://www.w3.org/2000/svg" viewBox="0 0 514.8 540.34"><defs><style>.cls-1{fill:#6b46c6;}.cls-2{fill:#31205b;}.cls-3{fill:#7659ef;}.cls-4{fill:#4c2e88;}.cls-5{fill:#7c5ff0;}.cls-6{fill:#8365f1;}.cls-7{fill:#896bf2;}.cls-8{fill:#9071f3;}.cls-9{fill:#9678f3;}.cls-10{fill:#9c7ef4;}.cls-11{fill:#a384f5;}.cls-12{fill:#a98af6;}.cls-13{fill:#b090f7;}.cls-14{fill:#b696f8;}.cls-15{fill:#bc9cf9;}.cls-16{fill:#c3a2fa;}.cls-17{fill:#c9a8fb;}.cls-18{fill:#cfaffb;}.cls-19{fill:#d6b5fc;}.cls-20{fill:#dcbbfd;}.cls-21{fill:#e3c1fe;}.cls-22{fill:#e9c7ff;}.cls-23{fill:#7d60f0;}.cls-24{fill:#8467f1;}.cls-25{fill:#8c6ef2;}.cls-26{fill:#9374f3;}.cls-27{fill:#9a7bf4;}.cls-28{fill:#a182f5;}.cls-29{fill:#a889f6;}.cls-30{fill:#b797f8;}.cls-31{fill:#be9ef9;}.cls-32{fill:#c5a5fa;}.cls-33{fill:#ccacfb;}.cls-34{fill:#d3b2fc;}.cls-35{fill:#dbb9fd;}.cls-36{fill:#e2c0fe;}</style></defs><g id="Слой_2" data-name="Слой 2"><g id="Слой_1-2" data-name="Слой 1"><polygon class="cls-1" points="514.8 167.29 259.13 105.25 259.13 0 514.8 44.28 514.8 167.29"/><polygon class="cls-2" points="514.65 44.77 259.28 104.25 259.28 539.45 514.65 406.52 514.65 44.77"/><polygon class="cls-3" points="259.13 186.8 0.31 261.99 0.31 43.28 259.13 0.01 259.13 186.8"/><polygon class="cls-4" points="259.45 540.34 0 405.21 0 43.59 259.45 104.22 259.45 540.34"/><text/><path class="cls-3" d="M210,294.52a127.07,127.07,0,0,1,11,29.33,131.67,131.67,0,0,1,2.75,15.53,139.26,139.26,0,0,1,.91,16,114.17,114.17,0,0,1-1.17,16.74,84.09,84.09,0,0,1-3.51,14.76,65.87,65.87,0,0,1-5.86,12.7,42.24,42.24,0,0,1-8.26,10,38.5,38.5,0,0,1-10.71,6.64,47.84,47.84,0,0,1-13.15,3.28,54.52,54.52,0,0,1-11.42,0A79.22,79.22,0,0,1,157.81,417a119.62,119.62,0,0,1-14-4.83q-7.32-3-15.26-7.14-5.83-3-11.63-6.49t-11.56-7.3q-5.76-3.84-11.5-8.07t-11.44-8.83q-5.72-4.61-11-9.31t-10.27-9.51q-4.94-4.8-9.49-9.69T42.92,336c3-5.55,5.54-10.25,7.9-14.67s4.53-8.56,6.88-13.06,4.87-9.37,7.89-15.29q4.3,5.26,9,10.21t9.71,9.6q5,4.64,10.45,8.95t10.75,8q5.36,3.69,10.66,6.76t10.55,5.45a57.39,57.39,0,0,0,14.4,4.71,22.5,22.5,0,0,0,11.1-.64,12.53,12.53,0,0,0,7.09-6.05q2.35-4.38,2.36-11.44a38.3,38.3,0,0,0-2.11-12.84,36.35,36.35,0,0,0-6.31-11.11,48.29,48.29,0,0,0-10.53-9.31,79.88,79.88,0,0,0-14.74-7.57l-13.07-5.23-13.07-5.22v-47.3c3.94-3.73,7.38-7.05,10.58-10.18s6.15-6.05,9.1-9,5.91-6,9.11-9.24,6.64-6.86,10.57-11l-16.09-4.76-14.16-4.18-13.2-3.89-13.2-3.9-14.16-4.18-16.09-4.75v-55l18.22,4.26,16.7,3.9,15.55,3.64,14.79,3.45,14.4,3.37,14.4,3.36,14.79,3.46,15.55,3.63,16.7,3.9,18.22,4.26v52.49c-3.65,4.25-6.94,8-10,11.5s-5.92,6.68-8.7,9.77-5.47,6.05-8.25,9.08-5.63,6.09-8.69,9.36-6.36,6.73-10,10.52a121.39,121.39,0,0,1,12.9,9.07,110.88,110.88,0,0,1,21,22.33A116.28,116.28,0,0,1,210,294.52Z"/><path class="cls-5" d="M209.09,295.05a128.3,128.3,0,0,1,11,29.33,131.28,131.28,0,0,1,2.74,15.53,139.13,139.13,0,0,1,.92,16,114,114,0,0,1-1.17,16.73A84.88,84.88,0,0,1,219,387.44a64.92,64.92,0,0,1-5.86,12.69,42.5,42.5,0,0,1-8.26,10,38.83,38.83,0,0,1-10.7,6.64A47.91,47.91,0,0,1,181.06,420a53.2,53.2,0,0,1-11.42,0,78.27,78.27,0,0,1-12.71-2.45,122.83,122.83,0,0,1-14-4.83q-7.3-3-15.26-7.15-5.82-3-11.62-6.48t-11.56-7.3Q98.73,388,93,383.71t-11.44-8.83q-5.7-4.61-11-9.3t-10.26-9.51q-5-4.8-9.5-9.69t-8.72-9.88c3-5.55,5.54-10.25,7.89-14.67s4.53-8.56,6.88-13.07,4.87-9.37,7.9-15.28q4.29,5.25,9,10.21t9.71,9.59q5,4.65,10.44,9t10.76,8q5.36,3.69,10.65,6.75t10.55,5.46a57.38,57.38,0,0,0,14.41,4.7,22.41,22.41,0,0,0,11.1-.63,12.52,12.52,0,0,0,7.08-6q2.37-4.38,2.36-11.44a38.65,38.65,0,0,0-2.1-12.85,36.33,36.33,0,0,0-6.32-11.1,48.32,48.32,0,0,0-10.53-9.32,80.17,80.17,0,0,0-14.74-7.57L114,283l-13.06-5.23V230.46c3.93-3.73,7.38-7.06,10.57-10.18s6.15-6.06,9.11-9,5.9-6,9.1-9.24,6.64-6.87,10.58-11l-16.1-4.75L110,182.07l-13.2-3.9-13.19-3.89L69.47,170.1l-16.09-4.75v-55l18.23,4.26,16.69,3.9,15.55,3.63,14.79,3.46L133,129l14.41,3.37,14.78,3.46,15.55,3.63,16.7,3.9,18.23,4.26v52.49c-3.65,4.24-6.94,8-10,11.5s-5.92,6.68-8.69,9.76-5.48,6.06-8.26,9.08-5.62,6.1-8.69,9.36-6.36,6.73-10,10.52A122.25,122.25,0,0,1,180,259.4a111.29,111.29,0,0,1,11.31,10.46A110,110,0,0,1,201,281.74,115.48,115.48,0,0,1,209.09,295.05Z"/><path class="cls-6" d="M208.21,295.58a127.37,127.37,0,0,1,6.4,14.35,126.1,126.1,0,0,1,4.58,15,131.47,131.47,0,0,1,2.75,15.54,139.09,139.09,0,0,1,.91,16,114.17,114.17,0,0,1-1.17,16.74A83.2,83.2,0,0,1,218.16,388a64.43,64.43,0,0,1-5.86,12.7,42,42,0,0,1-8.26,10,38.45,38.45,0,0,1-10.7,6.64,47.58,47.58,0,0,1-13.15,3.28,54,54,0,0,1-11.43,0,80.37,80.37,0,0,1-12.7-2.45,121.5,121.5,0,0,1-14-4.83q-7.32-3-15.27-7.15-5.82-3-11.62-6.48t-11.56-7.3q-5.77-3.85-11.5-8.08t-11.45-8.83q-5.7-4.61-11-9.31t-10.26-9.5q-4.94-4.8-9.49-9.7T41.17,337c3-5.56,5.54-10.25,7.89-14.67s4.54-8.57,6.89-13.07,4.87-9.37,7.89-15.29q4.3,5.26,9,10.22t9.71,9.59q5,4.63,10.44,8.95t10.76,8q5.36,3.71,10.65,6.76T124.92,343a57.17,57.17,0,0,0,14.41,4.71,22.52,22.52,0,0,0,11.1-.64,12.5,12.5,0,0,0,7.09-6.05c1.57-2.92,2.36-6.74,2.36-11.43a38.66,38.66,0,0,0-2.11-12.85,36,36,0,0,0-6.32-11.1,47.61,47.61,0,0,0-10.53-9.32,79.56,79.56,0,0,0-14.74-7.57l-13.06-5.23-13.07-5.22V231c3.93-3.74,7.38-7.06,10.58-10.19s6.15-6.05,9.1-9,5.9-5.95,9.1-9.24,6.64-6.86,10.58-11l-16.09-4.75-14.17-4.18L96,178.7l-13.2-3.9L68.6,170.62l-16.1-4.75V110.92l18.23,4.25,16.7,3.91L103,122.71l14.78,3.46,14.41,3.36,14.4,3.37,14.79,3.45L176.91,140l16.69,3.9,18.23,4.26v52.48c-3.65,4.25-6.94,8-10,11.5s-5.91,6.68-8.69,9.77-5.48,6.06-8.25,9.08-5.63,6.09-8.7,9.36-6.35,6.73-10,10.52a121.39,121.39,0,0,1,12.9,9.07,111.17,111.17,0,0,1,21,22.33A115.62,115.62,0,0,1,208.21,295.58Z"/><path class="cls-7" d="M207.33,296.1a127.07,127.07,0,0,1,11,29.33A131.67,131.67,0,0,1,221.06,341a139.26,139.26,0,0,1,.91,16,114,114,0,0,1-1.17,16.73,84,84,0,0,1-3.51,14.77,65.87,65.87,0,0,1-5.86,12.7,42.65,42.65,0,0,1-8.26,10,38.5,38.5,0,0,1-10.71,6.64,48.2,48.2,0,0,1-13.15,3.28,53.88,53.88,0,0,1-11.42,0,78.07,78.07,0,0,1-12.71-2.45,121.5,121.5,0,0,1-14-4.83q-7.32-3-15.26-7.14-5.84-3-11.63-6.49t-11.56-7.3Q97,389,91.25,384.76t-11.44-8.83q-5.72-4.59-11-9.3t-10.27-9.51q-4.93-4.8-9.49-9.69t-8.73-9.88c3-5.55,5.54-10.25,7.9-14.67s4.53-8.56,6.88-13.06,4.87-9.37,7.89-15.29q4.31,5.25,9,10.21t9.71,9.6q5,4.64,10.45,9t10.75,8c3.57,2.46,7.12,4.72,10.66,6.75s7,3.86,10.55,5.46a57.8,57.8,0,0,0,14.4,4.71,22.5,22.5,0,0,0,11.1-.64,12.53,12.53,0,0,0,7.09-6.05q2.36-4.38,2.36-11.44a38.3,38.3,0,0,0-2.11-12.84,36.35,36.35,0,0,0-6.31-11.11,48.29,48.29,0,0,0-10.53-9.31,80.5,80.5,0,0,0-14.74-7.58L112.24,284l-13.07-5.22v-47.3c3.94-3.73,7.38-7.06,10.58-10.18s6.15-6.05,9.1-9,5.91-6,9.11-9.24,6.64-6.87,10.57-11l-16.09-4.75-14.16-4.18-13.2-3.89-13.2-3.9-14.16-4.18L51.63,166.4v-55l18.22,4.26,16.7,3.9,15.55,3.64,14.79,3.45,14.4,3.37,14.4,3.36,14.79,3.46L176,140.51l16.7,3.9L211,148.67v52.49c-3.65,4.25-6.94,8-10,11.5s-5.92,6.68-8.7,9.76-5.47,6.06-8.25,9.08-5.63,6.1-8.69,9.37-6.36,6.73-10,10.52a122.78,122.78,0,0,1,12.9,9.06,113.42,113.42,0,0,1,11.3,10.46,110.11,110.11,0,0,1,9.72,11.88A116.28,116.28,0,0,1,207.33,296.1Z"/><path class="cls-8" d="M206.46,296.63a128,128,0,0,1,11,29.32,131.45,131.45,0,0,1,2.74,15.54,139.13,139.13,0,0,1,.92,16,114,114,0,0,1-1.17,16.73A85.1,85.1,0,0,1,216.41,389a65.19,65.19,0,0,1-5.86,12.69,42.24,42.24,0,0,1-8.26,10,38.36,38.36,0,0,1-10.7,6.64,47.56,47.56,0,0,1-13.16,3.28,53.2,53.2,0,0,1-11.42,0,80.48,80.48,0,0,1-12.71-2.45,122.83,122.83,0,0,1-14-4.83q-7.31-3-15.26-7.15-5.82-3-11.62-6.48t-11.56-7.3q-5.77-3.86-11.51-8.08t-11.44-8.83q-5.72-4.6-11-9.31t-10.26-9.5q-4.95-4.8-9.5-9.7t-8.72-9.87c3-5.56,5.54-10.25,7.89-14.67s4.53-8.56,6.88-13.07,4.87-9.37,7.89-15.29q4.31,5.26,9,10.22t9.71,9.59q5,4.63,10.44,8.95t10.76,8q5.36,3.69,10.65,6.75T123.17,344a57.38,57.38,0,0,0,14.41,4.7,22.41,22.41,0,0,0,11.1-.63,12.52,12.52,0,0,0,7.08-6.05c1.58-2.92,2.36-6.75,2.36-11.44a38.65,38.65,0,0,0-2.1-12.85,36.21,36.21,0,0,0-6.32-11.1,48.06,48.06,0,0,0-10.53-9.32,80.17,80.17,0,0,0-14.74-7.57l-13.07-5.22-13.07-5.23V232c3.94-3.73,7.39-7.06,10.58-10.19s6.15-6,9.11-9,5.9-6,9.1-9.24,6.64-6.86,10.58-11l-16.1-4.75-14.16-4.18-13.2-3.9L81,175.86l-14.17-4.18-16.09-4.75V112L69,116.23l16.69,3.9,15.55,3.63L116,127.22l14.4,3.36L144.82,134l14.78,3.45L175.15,141l16.7,3.9,18.23,4.26v52.48c-3.66,4.25-6.94,8-10,11.5s-5.92,6.68-8.69,9.77S185.9,229,183.12,232s-5.62,6.09-8.69,9.36-6.36,6.73-10,10.52a122.25,122.25,0,0,1,12.9,9.07,112.36,112.36,0,0,1,11.31,10.46,110,110,0,0,1,9.71,11.88A115.48,115.48,0,0,1,206.46,296.63Z"/><path class="cls-9" d="M205.58,297.15a128.32,128.32,0,0,1,6.4,14.36,125.54,125.54,0,0,1,4.58,15A131.67,131.67,0,0,1,219.31,342a139.39,139.39,0,0,1,.91,16,114.17,114.17,0,0,1-1.17,16.74,84.08,84.08,0,0,1-3.52,14.76,64.7,64.7,0,0,1-5.86,12.7,42,42,0,0,1-8.26,10,38.6,38.6,0,0,1-10.7,6.64,47.93,47.93,0,0,1-13.15,3.28,54.62,54.62,0,0,1-11.43,0,79.32,79.32,0,0,1-12.7-2.46,119.62,119.62,0,0,1-14-4.83q-7.32-3-15.27-7.14-5.82-3-11.62-6.49T101,393.9q-5.77-3.86-11.5-8.08T78.05,377q-5.7-4.61-11-9.31t-10.26-9.5q-4.93-4.81-9.49-9.7t-8.73-9.87c3-5.56,5.54-10.26,7.89-14.68s4.54-8.56,6.89-13.06,4.87-9.37,7.89-15.29q4.31,5.26,9,10.21t9.71,9.6q5,4.64,10.44,8.95t10.76,8q5.35,3.7,10.65,6.76t10.55,5.45a57.58,57.58,0,0,0,14.41,4.71,22.52,22.52,0,0,0,11.1-.64,12.48,12.48,0,0,0,7.08-6.05q2.37-4.38,2.37-11.44a38.55,38.55,0,0,0-2.11-12.84,36.17,36.17,0,0,0-6.32-11.11,47.83,47.83,0,0,0-10.53-9.31,79.56,79.56,0,0,0-14.74-7.57l-13.06-5.23-13.07-5.22V232.57c3.93-3.74,7.38-7.06,10.58-10.19s6.15-6,9.1-9,5.9-6,9.1-9.24,6.64-6.86,10.58-11l-16.09-4.75-14.17-4.19-13.19-3.89-13.2-3.9L66,172.2l-16.1-4.75v-55l18.23,4.26,16.7,3.9,15.55,3.64,14.78,3.45,14.41,3.37,14.4,3.36,14.79,3.46,15.55,3.63,16.69,3.9,18.23,4.26v52.49c-3.65,4.25-6.94,8-10,11.5s-5.91,6.68-8.69,9.77-5.48,6.05-8.25,9.08-5.63,6.09-8.7,9.36-6.35,6.73-10,10.52a120.51,120.51,0,0,1,12.91,9.07A112.15,112.15,0,0,1,187.75,272a111,111,0,0,1,9.71,11.88A116.34,116.34,0,0,1,205.58,297.15Z"/><path class="cls-10" d="M204.7,297.68A128.39,128.39,0,0,1,211.11,312a127.36,127.36,0,0,1,4.57,15,131.3,131.3,0,0,1,2.75,15.53,139.14,139.14,0,0,1,.91,16,114,114,0,0,1-1.17,16.73,84,84,0,0,1-3.51,14.77,65.51,65.51,0,0,1-5.86,12.69,42.5,42.5,0,0,1-8.26,10,38.74,38.74,0,0,1-10.71,6.64,47.84,47.84,0,0,1-13.15,3.27,53.29,53.29,0,0,1-11.43,0,78.16,78.16,0,0,1-12.7-2.45,121.5,121.5,0,0,1-14-4.83q-7.32-3-15.26-7.15-5.84-3-11.63-6.48t-11.56-7.3q-5.76-3.84-11.5-8.08t-11.44-8.83q-5.72-4.59-11-9.3T55.88,358.7q-4.93-4.8-9.49-9.69t-8.73-9.88c3-5.55,5.54-10.25,7.89-14.67s4.54-8.56,6.89-13.07,4.87-9.37,7.89-15.28q4.31,5.25,9,10.21T79,315.91q5,4.65,10.45,9t10.75,8q5.36,3.69,10.66,6.75t10.55,5.46a57.32,57.32,0,0,0,14.4,4.7,22.39,22.39,0,0,0,11.1-.63,12.53,12.53,0,0,0,7.09-6.05q2.36-4.38,2.36-11.44a38.4,38.4,0,0,0-2.11-12.85,36.3,36.3,0,0,0-6.31-11.1,48.32,48.32,0,0,0-10.53-9.32,80.5,80.5,0,0,0-14.74-7.57l-13.07-5.22-13.07-5.23V233.09c3.94-3.73,7.38-7.06,10.58-10.18s6.15-6,9.1-9,5.91-6,9.1-9.24,6.65-6.87,10.58-11l-16.09-4.75-14.16-4.18-13.2-3.9-13.2-3.89-14.16-4.18L49,168V113l18.22,4.26,16.7,3.9,15.55,3.63,14.79,3.46,14.4,3.36,14.4,3.37,14.79,3.46,15.55,3.63,16.7,3.9,18.22,4.26v52.49c-3.65,4.24-6.94,8-10,11.5s-5.92,6.68-8.7,9.76-5.48,6.06-8.25,9.08-5.63,6.1-8.69,9.36-6.36,6.73-10,10.52a124.35,124.35,0,0,1,12.9,9.07,112.24,112.24,0,0,1,11.3,10.46,110.11,110.11,0,0,1,9.72,11.88A115.42,115.42,0,0,1,204.7,297.68Z"/><path class="cls-11" d="M203.83,298.21a128,128,0,0,1,11,29.32,131.45,131.45,0,0,1,2.74,15.54,139.08,139.08,0,0,1,.92,16,114.17,114.17,0,0,1-1.17,16.74,85,85,0,0,1-3.52,14.76,65,65,0,0,1-5.86,12.7,42.24,42.24,0,0,1-8.26,10,38.6,38.6,0,0,1-10.7,6.64,47.65,47.65,0,0,1-13.16,3.28,53.85,53.85,0,0,1-11.42,0,80.48,80.48,0,0,1-12.71-2.45,122.83,122.83,0,0,1-14-4.83q-7.31-3-15.26-7.15-5.82-3-11.62-6.48T99.24,395q-5.76-3.85-11.5-8.08T76.3,378q-5.72-4.6-11-9.31T55,359.23q-4.95-4.8-9.5-9.7t-8.72-9.87c3-5.56,5.54-10.25,7.89-14.67s4.53-8.57,6.88-13.07,4.87-9.37,7.89-15.29q4.3,5.26,9,10.22t9.71,9.59q5,4.63,10.44,8.95t10.76,8q5.35,3.71,10.65,6.76t10.55,5.45A57,57,0,0,0,135,350.32a22.4,22.4,0,0,0,11.1-.64,12.48,12.48,0,0,0,7.08-6.05c1.58-2.92,2.36-6.74,2.36-11.43a38.65,38.65,0,0,0-2.1-12.85,36.21,36.21,0,0,0-6.32-11.1,48.06,48.06,0,0,0-10.53-9.32,79.56,79.56,0,0,0-14.74-7.57l-13.07-5.23-13.07-5.22V233.62c3.94-3.74,7.38-7.06,10.58-10.19s6.15-6.05,9.11-9,5.9-5.95,9.1-9.24,6.64-6.86,10.58-11l-16.1-4.75-14.16-4.18-13.2-3.9-13.19-3.9-14.17-4.18L48.12,168.5V113.55l18.23,4.25L83,121.71l15.55,3.63,14.79,3.46,14.4,3.36,14.41,3.37L157,139l15.55,3.64,16.7,3.9,18.23,4.26v52.48c-3.66,4.25-6.94,8-10,11.5s-5.92,6.68-8.69,9.77-5.48,6.06-8.26,9.08-5.62,6.09-8.69,9.36-6.36,6.73-10,10.52a122.25,122.25,0,0,1,12.9,9.07A111.2,111.2,0,0,1,186,273a110,110,0,0,1,9.71,11.88A114.63,114.63,0,0,1,203.83,298.21Z"/><path class="cls-12" d="M203,298.73a128.3,128.3,0,0,1,11,29.33,131.67,131.67,0,0,1,2.75,15.53,139.26,139.26,0,0,1,.91,16,114.17,114.17,0,0,1-1.17,16.74,84.08,84.08,0,0,1-3.52,14.76,64.7,64.7,0,0,1-5.86,12.7,42,42,0,0,1-8.26,10,38.6,38.6,0,0,1-10.7,6.64,48.29,48.29,0,0,1-13.15,3.28,54,54,0,0,1-11.43,0,78.16,78.16,0,0,1-12.7-2.45,120.38,120.38,0,0,1-14-4.83q-7.31-3-15.26-7.14-5.82-3-11.62-6.49t-11.56-7.3q-5.78-3.84-11.5-8.08t-11.45-8.83q-5.7-4.59-11-9.3t-10.26-9.51q-4.93-4.8-9.49-9.69t-8.73-9.88c3-5.55,5.54-10.25,7.89-14.67s4.53-8.56,6.89-13.06,4.87-9.37,7.89-15.29q4.31,5.25,9,10.21t9.71,9.6q5,4.63,10.44,8.95t10.76,8c3.57,2.46,7.12,4.72,10.65,6.75s7,3.86,10.55,5.46a58,58,0,0,0,14.41,4.71,22.52,22.52,0,0,0,11.1-.64,12.48,12.48,0,0,0,7.08-6q2.37-4.38,2.37-11.44a38.55,38.55,0,0,0-2.11-12.84,36.17,36.17,0,0,0-6.32-11.11,48.06,48.06,0,0,0-10.53-9.31,79.56,79.56,0,0,0-14.74-7.57l-13.06-5.23-13.07-5.22v-47.3c3.93-3.73,7.38-7.06,10.58-10.18s6.15-6.05,9.1-9,5.9-6,9.1-9.24,6.64-6.87,10.58-11l-16.09-4.75-14.17-4.18L90.7,181.86,77.5,178l-14.16-4.18L47.24,169v-55l18.23,4.26,16.7,3.9,15.55,3.64,14.78,3.45,14.41,3.37,14.4,3.36,14.79,3.46,15.55,3.63,16.69,3.9,18.23,4.26v52.49c-3.65,4.25-6.94,8-10,11.5s-5.91,6.68-8.69,9.76-5.48,6.06-8.25,9.09-5.63,6.09-8.7,9.36-6.35,6.73-10,10.52a120.73,120.73,0,0,1,12.9,9.06,112.44,112.44,0,0,1,11.31,10.46,110,110,0,0,1,9.71,11.88A116.34,116.34,0,0,1,203,298.73Z"/><path class="cls-13" d="M202.07,299.26a126.61,126.61,0,0,1,11,29.33,130.94,130.94,0,0,1,2.75,15.53,139.14,139.14,0,0,1,.91,16,114,114,0,0,1-1.17,16.73A84.2,84.2,0,0,1,212,391.65a65,65,0,0,1-5.87,12.69,42,42,0,0,1-8.25,10A38.53,38.53,0,0,1,187.2,421a47.84,47.84,0,0,1-13.15,3.27,53.29,53.29,0,0,1-11.43,0,80.37,80.37,0,0,1-12.7-2.45,121.5,121.5,0,0,1-14-4.83q-7.32-3-15.26-7.15-5.84-3-11.63-6.48T97.49,396q-5.76-3.86-11.5-8.08t-11.44-8.83q-5.72-4.6-11-9.3t-10.26-9.51q-4.94-4.8-9.49-9.7T35,340.71c3-5.56,5.54-10.25,7.89-14.67s4.54-8.56,6.89-13.07,4.87-9.37,7.89-15.29q4.3,5.26,9,10.22t9.71,9.59q5,4.63,10.45,9t10.75,8q5.36,3.69,10.66,6.75t10.55,5.46a57.32,57.32,0,0,0,14.4,4.7,22.4,22.4,0,0,0,11.1-.63,12.53,12.53,0,0,0,7.09-6.05c1.57-2.92,2.36-6.75,2.36-11.44a38.4,38.4,0,0,0-2.11-12.85,36.3,36.3,0,0,0-6.31-11.1A48.32,48.32,0,0,0,134.79,300a80.5,80.5,0,0,0-14.74-7.57L107,287.19,93.91,282V234.67c3.94-3.73,7.38-7.06,10.58-10.19s6.15-6,9.1-9,5.91-5.95,9.1-9.24,6.65-6.86,10.58-11l-16.09-4.75L103,186.28l-13.2-3.9-13.2-3.89-14.16-4.18-16.09-4.75v-55l18.22,4.26,16.7,3.9,15.55,3.63,14.79,3.46,14.4,3.36,14.4,3.37L155.22,140l15.55,3.64,16.7,3.9,18.22,4.26v52.48c-3.65,4.25-6.94,8-10,11.5s-5.92,6.68-8.7,9.77-5.48,6.06-8.25,9.08-5.63,6.09-8.69,9.36-6.36,6.73-10,10.52a124.35,124.35,0,0,1,12.9,9.07,112.24,112.24,0,0,1,11.3,10.46A108.84,108.84,0,0,1,194,286,114.1,114.1,0,0,1,202.07,299.26Z"/><path class="cls-14" d="M201.19,299.78a127.71,127.71,0,0,1,11,29.33,131.64,131.64,0,0,1,2.74,15.53,139.39,139.39,0,0,1,.92,16,112.77,112.77,0,0,1-1.18,16.74,84.09,84.09,0,0,1-3.51,14.76,65.28,65.28,0,0,1-5.86,12.7,42.24,42.24,0,0,1-8.26,10,38.5,38.5,0,0,1-10.71,6.64,47.84,47.84,0,0,1-13.15,3.28,53.85,53.85,0,0,1-11.42,0A79.43,79.43,0,0,1,149,422.28a122.69,122.69,0,0,1-14-4.82q-7.31-3-15.26-7.15-5.83-3-11.62-6.49t-11.57-7.29q-5.76-3.86-11.5-8.08t-11.44-8.83q-5.72-4.61-11-9.31t-10.26-9.5q-5-4.81-9.5-9.7t-8.72-9.87c3-5.56,5.54-10.26,7.89-14.67s4.53-8.57,6.88-13.07,4.87-9.37,7.89-15.29q4.31,5.27,9,10.21t9.7,9.6q5,4.64,10.45,9t10.76,8c3.56,2.47,7.12,4.72,10.65,6.76s7,3.85,10.55,5.45a57.45,57.45,0,0,0,14.41,4.71,22.52,22.52,0,0,0,11.1-.64,12.52,12.52,0,0,0,7.08-6.05q2.37-4.38,2.36-11.44a38.55,38.55,0,0,0-2.1-12.84,36.38,36.38,0,0,0-6.32-11.11,48.29,48.29,0,0,0-10.53-9.31,79.88,79.88,0,0,0-14.74-7.57l-13.07-5.23L93,282.49V235.2c3.94-3.74,7.38-7.06,10.58-10.19s6.15-6,9.11-9,5.9-5.95,9.1-9.24,6.64-6.86,10.58-11L116.3,191l-14.16-4.19-13.2-3.89L75.74,179l-14.16-4.18-16.09-4.75v-55l18.23,4.26,16.69,3.9L96,126.92l14.79,3.45,14.4,3.37,14.41,3.36,14.78,3.46,15.55,3.63,16.7,3.91,18.23,4.25v52.49c-3.66,4.25-6.94,8-10,11.5s-5.92,6.68-8.69,9.77-5.48,6-8.26,9.08-5.62,6.09-8.69,9.36-6.36,6.73-10,10.52a119.38,119.38,0,0,1,12.9,9.07,110.14,110.14,0,0,1,21,22.33A116.28,116.28,0,0,1,201.19,299.78Z"/><path class="cls-15" d="M200.32,300.31a128.32,128.32,0,0,1,6.4,14.36,127.4,127.4,0,0,1,4.58,15,131.3,131.3,0,0,1,2.75,15.53,139.14,139.14,0,0,1,.91,16,114,114,0,0,1-1.17,16.73,84,84,0,0,1-3.52,14.77,64.34,64.34,0,0,1-5.86,12.69,42.26,42.26,0,0,1-8.26,10,38.83,38.83,0,0,1-10.7,6.64,47.93,47.93,0,0,1-13.15,3.27,53.29,53.29,0,0,1-11.43,0,78,78,0,0,1-12.7-2.45,122.29,122.29,0,0,1-14-4.83q-7.31-3-15.26-7.14-5.82-3-11.62-6.49t-11.56-7.3Q90,393.21,84.24,389t-11.45-8.83q-5.7-4.59-11-9.3T51.5,361.33q-4.94-4.8-9.5-9.69t-8.72-9.88c3-5.55,5.54-10.25,7.89-14.67s4.53-8.56,6.89-13.07,4.87-9.37,7.89-15.28q4.3,5.25,9,10.21t9.71,9.59q5,4.65,10.44,9t10.76,8c3.57,2.46,7.12,4.72,10.65,6.75s7,3.86,10.55,5.46a57.51,57.51,0,0,0,14.41,4.7,22.41,22.41,0,0,0,11.1-.63,12.52,12.52,0,0,0,7.08-6.05Q152,341.36,152,334.3a38.66,38.66,0,0,0-2.11-12.85,36.12,36.12,0,0,0-6.32-11.1A48.09,48.09,0,0,0,133,301a80.17,80.17,0,0,0-14.74-7.57l-13.07-5.22L92.16,283v-47.3c3.93-3.73,7.38-7.06,10.58-10.18s6.15-6,9.1-9,5.9-6,9.1-9.24,6.64-6.87,10.58-11l-16.09-4.75-14.17-4.18-13.19-3.9-13.2-3.89-14.16-4.18-16.1-4.75v-55l18.23,4.26,16.7,3.9,15.55,3.63,14.78,3.46,14.41,3.37,14.4,3.36,14.79,3.46L169,144.72l16.69,3.9,18.23,4.26v52.49c-3.65,4.24-6.94,8-10,11.5s-5.91,6.68-8.69,9.76-5.48,6.06-8.25,9.08-5.63,6.1-8.7,9.36-6.35,6.73-10,10.52a122.25,122.25,0,0,1,12.9,9.07,111.29,111.29,0,0,1,11.31,10.46A110,110,0,0,1,192.2,287,116.34,116.34,0,0,1,200.32,300.31Z"/><path class="cls-16" d="M199.44,300.84a126.76,126.76,0,0,1,11,29.32,131.47,131.47,0,0,1,2.75,15.54,139.09,139.09,0,0,1,.91,16,114.17,114.17,0,0,1-1.17,16.74,83,83,0,0,1-3.52,14.76,64.43,64.43,0,0,1-5.86,12.7,42,42,0,0,1-8.25,10,38.5,38.5,0,0,1-10.71,6.64,47.49,47.49,0,0,1-13.15,3.28,54,54,0,0,1-11.43,0,80.37,80.37,0,0,1-12.7-2.45,121.5,121.5,0,0,1-14-4.83q-7.32-3-15.26-7.15-5.83-3-11.63-6.48t-11.56-7.3q-5.76-3.85-11.5-8.08t-11.44-8.83q-5.72-4.6-11-9.31t-10.26-9.5q-4.93-4.8-9.49-9.7t-8.73-9.87c3-5.56,5.54-10.25,7.89-14.67s4.54-8.56,6.89-13.07,4.87-9.37,7.89-15.29q4.31,5.26,9,10.22t9.71,9.59q5,4.64,10.45,8.95T95,336q5.35,3.71,10.66,6.76t10.55,5.45a57,57,0,0,0,14.4,4.71,22.39,22.39,0,0,0,11.1-.64,12.52,12.52,0,0,0,7.09-6q2.35-4.39,2.36-11.44A38.4,38.4,0,0,0,149,322a36.18,36.18,0,0,0-6.31-11.1,48.06,48.06,0,0,0-10.53-9.32A80.2,80.2,0,0,0,117.42,294l-13.07-5.22-13.07-5.23V236.25c3.94-3.73,7.38-7.06,10.58-10.19s6.15-6.05,9.1-9,5.91-6,9.1-9.24,6.65-6.86,10.58-11L114.55,192l-14.16-4.18L87.19,184,74,180.07l-14.16-4.19-16.09-4.75V116.18L62,120.44l16.7,3.9L94.21,128,109,131.43l14.4,3.36,14.4,3.37,14.79,3.45,15.55,3.64,16.7,3.9,18.22,4.26v52.48c-3.65,4.25-6.94,8-10,11.5s-5.92,6.68-8.7,9.77-5.48,6.06-8.25,9.08-5.63,6.09-8.69,9.36-6.36,6.73-10,10.52a124.35,124.35,0,0,1,12.9,9.07,111.09,111.09,0,0,1,11.3,10.46,108.84,108.84,0,0,1,9.71,11.88A113.27,113.27,0,0,1,199.44,300.84Z"/><path class="cls-17" d="M198.56,301.36A128.39,128.39,0,0,1,205,315.72a127.4,127.4,0,0,1,4.58,15,131.64,131.64,0,0,1,2.74,15.53,139.26,139.26,0,0,1,.92,16A112.77,112.77,0,0,1,212,379a84.09,84.09,0,0,1-3.51,14.76,65.28,65.28,0,0,1-5.86,12.7,42.24,42.24,0,0,1-8.26,10,38.5,38.5,0,0,1-10.71,6.64,47.84,47.84,0,0,1-13.15,3.28,53.88,53.88,0,0,1-11.42,0,78.27,78.27,0,0,1-12.71-2.45,120.9,120.9,0,0,1-14-4.83q-7.31-3-15.26-7.14-5.83-3-11.62-6.49T94,398.1q-5.76-3.84-11.5-8.08T71,381.19q-5.72-4.59-11-9.3t-10.26-9.51q-4.95-4.8-9.5-9.69t-8.72-9.88c3-5.55,5.54-10.25,7.89-14.67s4.53-8.56,6.88-13.06,4.87-9.37,7.89-15.29q4.31,5.26,9,10.21t9.7,9.6q5,4.63,10.45,8.95t10.76,8c3.56,2.46,7.12,4.72,10.65,6.75s7,3.86,10.55,5.46a57.86,57.86,0,0,0,14.41,4.71,22.52,22.52,0,0,0,11.1-.64,12.52,12.52,0,0,0,7.08-6q2.37-4.38,2.36-11.44a38.55,38.55,0,0,0-2.1-12.84,36.38,36.38,0,0,0-6.32-11.11,48.29,48.29,0,0,0-10.53-9.31,79.88,79.88,0,0,0-14.74-7.57l-13.07-5.23L90.4,284.07v-47.3c3.94-3.73,7.38-7.06,10.58-10.18s6.15-6.05,9.1-9,5.91-6,9.11-9.24,6.64-6.87,10.58-11l-16.1-4.75-14.16-4.18-13.2-3.89-13.2-3.9L59,176.41l-16.09-4.75v-55L61.09,121l16.69,3.9,15.55,3.64L108.12,132l14.4,3.37,14.41,3.36,14.78,3.46,15.55,3.63,16.7,3.9,18.23,4.26v52.49c-3.66,4.25-6.94,8-10,11.5s-5.92,6.68-8.69,9.76-5.48,6.06-8.26,9.09-5.62,6.09-8.69,9.36-6.36,6.73-10,10.52a120.73,120.73,0,0,1,12.9,9.06,113.54,113.54,0,0,1,11.31,10.46,110,110,0,0,1,9.71,11.88A116.28,116.28,0,0,1,198.56,301.36Z"/><path class="cls-18" d="M197.69,301.89a127.84,127.84,0,0,1,11,29.33,130.92,130.92,0,0,1,2.74,15.53,139.13,139.13,0,0,1,.92,16,114,114,0,0,1-1.17,16.73,84.2,84.2,0,0,1-3.52,14.77A64.92,64.92,0,0,1,201.78,407a42,42,0,0,1-8.26,10,38.63,38.63,0,0,1-10.7,6.65,47.93,47.93,0,0,1-13.15,3.27,53.29,53.29,0,0,1-11.43,0,80.15,80.15,0,0,1-12.7-2.45,122.29,122.29,0,0,1-14-4.83q-7.31-3-15.26-7.15-5.82-3-11.62-6.48t-11.56-7.3q-5.77-3.84-11.5-8.08t-11.45-8.83q-5.7-4.61-11-9.3t-10.26-9.51q-4.93-4.8-9.5-9.7t-8.72-9.87c3-5.56,5.54-10.25,7.89-14.67s4.53-8.56,6.89-13.07,4.86-9.37,7.89-15.28q4.31,5.25,9,10.21T72,320.12q5,4.63,10.44,9t10.76,8q5.35,3.69,10.65,6.75t10.55,5.46a57.51,57.51,0,0,0,14.41,4.7,22.41,22.41,0,0,0,11.1-.63,12.52,12.52,0,0,0,7.08-6.05c1.58-2.92,2.37-6.75,2.37-11.44A38.66,38.66,0,0,0,147.25,323a36.12,36.12,0,0,0-6.32-11.1,48.32,48.32,0,0,0-10.53-9.32A80.17,80.17,0,0,0,115.66,295l-13.07-5.22-13.06-5.23V237.3c3.93-3.73,7.38-7.06,10.58-10.19s6.15-6.05,9.1-9,5.9-5.95,9.1-9.23,6.64-6.87,10.58-11l-16.09-4.75-14.17-4.18L85.43,185l-13.19-3.89-14.16-4.18L42,172.19v-55l18.23,4.26,16.7,3.9L92.46,129l14.78,3.46,14.41,3.36,14.4,3.37,14.79,3.45,15.55,3.64,16.69,3.9,18.23,4.26V207c-3.65,4.24-6.94,8-10,11.49s-5.91,6.69-8.69,9.77-5.48,6.06-8.26,9.08-5.62,6.1-8.69,9.36-6.35,6.73-10,10.52a122.25,122.25,0,0,1,12.9,9.07,111.29,111.29,0,0,1,11.31,10.46,110,110,0,0,1,9.71,11.88A115.48,115.48,0,0,1,197.69,301.89Z"/><path class="cls-19" d="M196.81,302.41a128.39,128.39,0,0,1,6.41,14.36,127.36,127.36,0,0,1,4.57,15,131.67,131.67,0,0,1,2.75,15.53,139.39,139.39,0,0,1,.91,16A114.17,114.17,0,0,1,210.28,380a83.2,83.2,0,0,1-3.52,14.76,64.7,64.7,0,0,1-5.86,12.7,42,42,0,0,1-8.25,10,38.5,38.5,0,0,1-10.71,6.64,47.58,47.58,0,0,1-13.15,3.28,54,54,0,0,1-11.43,0,79.32,79.32,0,0,1-12.7-2.46,121.36,121.36,0,0,1-14-4.82q-7.32-3-15.26-7.15-5.83-3-11.63-6.49t-11.56-7.29q-5.76-3.86-11.5-8.08t-11.44-8.83q-5.72-4.61-11-9.31T48,363.44q-4.93-4.81-9.49-9.7t-8.73-9.87c3-5.56,5.54-10.26,7.89-14.67s4.54-8.57,6.89-13.07,4.87-9.37,7.89-15.29q4.31,5.27,9,10.21t9.71,9.6q5,4.64,10.45,9t10.75,8q5.36,3.7,10.66,6.76c3.53,2,7,3.86,10.55,5.45a57.39,57.39,0,0,0,14.4,4.71,22.51,22.51,0,0,0,11.1-.64,12.53,12.53,0,0,0,7.09-6.05q2.35-4.38,2.36-11.44a38.3,38.3,0,0,0-2.11-12.84,36.35,36.35,0,0,0-6.31-11.11,48.29,48.29,0,0,0-10.53-9.31,80.2,80.2,0,0,0-14.74-7.57l-13.07-5.23-13.07-5.22V237.83c3.94-3.74,7.38-7.06,10.58-10.19s6.15-6,9.1-9,5.91-5.95,9.1-9.24,6.65-6.86,10.58-11l-16.09-4.75-14.16-4.19-13.2-3.89-13.2-3.9L57.2,177.46l-16.09-4.75v-55L59.33,122,76,125.92l15.55,3.63L106.37,133l14.4,3.37,14.4,3.37L150,143.19l15.55,3.63,16.7,3.91L200.43,155v52.49c-3.65,4.25-6.94,8-10,11.5s-5.92,6.68-8.7,9.77-5.48,6.06-8.25,9.08-5.63,6.09-8.69,9.36-6.36,6.73-10,10.52a121.39,121.39,0,0,1,12.9,9.07A112.15,112.15,0,0,1,179,277.22a110.78,110.78,0,0,1,9.71,11.88A114.94,114.94,0,0,1,196.81,302.41Z"/><path class="cls-20" d="M195.93,302.94a128.39,128.39,0,0,1,6.41,14.36,127.4,127.4,0,0,1,4.58,15,131.28,131.28,0,0,1,2.74,15.53,139.13,139.13,0,0,1,.92,16,112.63,112.63,0,0,1-1.18,16.73,84,84,0,0,1-3.51,14.77A65.51,65.51,0,0,1,200,408a42.5,42.5,0,0,1-8.26,10,38.74,38.74,0,0,1-10.71,6.64,47.84,47.84,0,0,1-13.15,3.27,53.2,53.2,0,0,1-11.42,0,78.27,78.27,0,0,1-12.71-2.45,122.16,122.16,0,0,1-14-4.83q-7.31-3-15.26-7.14-5.83-3-11.62-6.49t-11.57-7.3q-5.76-3.84-11.5-8.08t-11.44-8.83q-5.72-4.59-11-9.3T47.11,364q-4.94-4.8-9.49-9.69t-8.72-9.88c3-5.55,5.54-10.25,7.89-14.67s4.53-8.56,6.88-13.07,4.87-9.36,7.89-15.28q4.3,5.25,9,10.21t9.7,9.59q5,4.65,10.45,9t10.76,8c3.56,2.46,7.11,4.72,10.65,6.75s7.05,3.86,10.55,5.46a57.25,57.25,0,0,0,14.41,4.7,22.41,22.41,0,0,0,11.1-.63,12.52,12.52,0,0,0,7.08-6.05q2.35-4.38,2.36-11.44a38.65,38.65,0,0,0-2.1-12.85,36.33,36.33,0,0,0-6.32-11.1,48.32,48.32,0,0,0-10.53-9.32,81.13,81.13,0,0,0-14.74-7.57l-13.07-5.22-13.07-5.22v-47.3c3.94-3.73,7.38-7.06,10.58-10.18s6.15-6,9.1-9,5.91-6,9.11-9.24,6.64-6.87,10.58-11L111,194.14,96.88,190l-13.2-3.89-13.2-3.9L56.32,178l-16.09-4.75v-55l18.23,4.26,16.69,3.9,15.55,3.63,14.79,3.46,14.4,3.37,14.41,3.36,14.78,3.46,15.55,3.63,16.7,3.9,18.23,4.26V208c-3.66,4.24-6.94,8-10,11.5s-5.92,6.68-8.69,9.76-5.48,6.06-8.26,9.08-5.62,6.1-8.69,9.36-6.36,6.73-10,10.52a122.25,122.25,0,0,1,12.9,9.07,113.45,113.45,0,0,1,11.31,10.46,110,110,0,0,1,9.71,11.88A116.28,116.28,0,0,1,195.93,302.94Z"/><path class="cls-21" d="M195.06,303.47a128,128,0,0,1,11,29.32,131.45,131.45,0,0,1,2.74,15.54,139.08,139.08,0,0,1,.92,16,114.17,114.17,0,0,1-1.17,16.74A83.87,83.87,0,0,1,205,395.85a65,65,0,0,1-5.86,12.7,42,42,0,0,1-8.26,10,38.36,38.36,0,0,1-10.7,6.64A47.58,47.58,0,0,1,167,428.45a53.29,53.29,0,0,1-11.43,0,80.15,80.15,0,0,1-12.7-2.45,122.29,122.29,0,0,1-14-4.83q-7.3-3-15.26-7.15-5.82-3-11.62-6.48t-11.56-7.3Q84.7,396.36,79,392.13T67.53,383.3q-5.7-4.6-11-9.31t-10.26-9.5q-4.93-4.8-9.5-9.7T28,344.92c3-5.56,5.54-10.25,7.89-14.67s4.53-8.56,6.88-13.07,4.87-9.37,7.9-15.29q4.31,5.26,9,10.22t9.71,9.59q5,4.64,10.44,8.95t10.76,8q5.36,3.7,10.65,6.76t10.55,5.46a57.51,57.51,0,0,0,14.41,4.7,22.4,22.4,0,0,0,11.1-.64,12.46,12.46,0,0,0,7.08-6q2.37-4.39,2.36-11.44a38.65,38.65,0,0,0-2.1-12.85,36,36,0,0,0-6.32-11.1,48.06,48.06,0,0,0-10.53-9.32A79.56,79.56,0,0,0,113,296.62L100,291.4,86.9,286.17V238.88c3.93-3.73,7.38-7.06,10.58-10.19s6.15-6.05,9.1-9,5.9-6,9.1-9.24,6.64-6.86,10.58-11l-16.1-4.75L96,190.49l-13.2-3.9L69.61,182.7l-14.16-4.19-16.1-4.75V118.81l18.23,4.26,16.7,3.9,15.55,3.63,14.78,3.46L119,137.42l14.4,3.37,14.79,3.45,15.55,3.64,16.69,3.9L198.68,156v52.48c-3.65,4.25-6.94,8-10,11.5s-5.91,6.68-8.69,9.77-5.48,6.06-8.26,9.08S166.1,245,163,248.23s-6.35,6.73-10,10.52a122.25,122.25,0,0,1,12.9,9.07,111.29,111.29,0,0,1,11.31,10.46,110,110,0,0,1,9.71,11.88A114.63,114.63,0,0,1,195.06,303.47Z"/><path class="cls-22" d="M194.18,304a128.39,128.39,0,0,1,6.41,14.36,127.36,127.36,0,0,1,4.57,15,131.67,131.67,0,0,1,2.75,15.53,139.26,139.26,0,0,1,.91,16,114.17,114.17,0,0,1-1.17,16.74,83.2,83.2,0,0,1-3.52,14.76,64.7,64.7,0,0,1-5.86,12.7,42,42,0,0,1-8.25,10,38.5,38.5,0,0,1-10.71,6.64A47.93,47.93,0,0,1,166.16,429a54,54,0,0,1-11.43,0,78.16,78.16,0,0,1-12.7-2.45,119.62,119.62,0,0,1-14-4.83q-7.32-3-15.27-7.14-5.82-3-11.62-6.49t-11.56-7.3q-5.76-3.84-11.5-8.08t-11.44-8.83q-5.71-4.59-11-9.3T45.36,365q-4.94-4.8-9.49-9.69t-8.73-9.88c3-5.55,5.54-10.25,7.89-14.67s4.54-8.56,6.89-13.06,4.87-9.37,7.89-15.29q4.3,5.26,9,10.21t9.71,9.6q5,4.63,10.45,8.95t10.75,8Q95,342.88,100.35,346t10.55,5.45a57.8,57.8,0,0,0,14.4,4.71,22.51,22.51,0,0,0,11.1-.64,12.53,12.53,0,0,0,7.09-6.05q2.35-4.38,2.36-11.44a38.3,38.3,0,0,0-2.11-12.84A36.17,36.17,0,0,0,137.42,314a48,48,0,0,0-10.52-9.31,80.2,80.2,0,0,0-14.74-7.57l-13.07-5.23L86,286.7V239.4c3.94-3.73,7.38-7.06,10.58-10.18s6.15-6.05,9.1-9,5.91-6,9.1-9.24,6.65-6.87,10.58-11l-16.09-4.76L95.12,191l-13.19-3.89-13.2-3.9L54.57,179l-16.09-4.75v-55l18.22,4.26,16.7,3.9L89,131.13l14.79,3.45,14.4,3.37,14.4,3.36,14.79,3.46,15.55,3.63,16.7,3.9,18.22,4.26v52.49c-3.65,4.25-6.94,8-10,11.5s-5.92,6.68-8.7,9.76-5.48,6.06-8.25,9.09-5.63,6.09-8.7,9.36-6.35,6.73-10,10.52a122.78,122.78,0,0,1,12.9,9.06,113.42,113.42,0,0,1,11.3,10.46,108.84,108.84,0,0,1,9.71,11.88A114.94,114.94,0,0,1,194.18,304Z"/><path class="cls-3" d="M386.17,337a64.67,64.67,0,0,0,13.41-8.23,74.08,74.08,0,0,0,11.53-11.49,93.59,93.59,0,0,0,9.64-14.61,100.75,100.75,0,0,0,5.71-12.59,107.63,107.63,0,0,0,4.07-13.53A120.61,120.61,0,0,0,433,262a145.24,145.24,0,0,0,.82-15.57A119.49,119.49,0,0,0,432.35,227a66.64,66.64,0,0,0-4.35-15.4,41.08,41.08,0,0,0-7.25-11.5,31.27,31.27,0,0,0-9.64-7.32,28.79,28.79,0,0,0-11.53-2.75A41.43,41.43,0,0,0,386.17,192l-15,4.51-15,4.5V350.68l15-6.83Zm-77.3-186.4,17.36-4.11,15.08-3.57,14.32-3.39L370.72,136l17.36-4.11a88,88,0,0,1,17.66-2.41A70.53,70.53,0,0,1,422,130.77a66,66,0,0,1,14.9,4.88A64.42,64.42,0,0,1,450,143.81a67.4,67.4,0,0,1,11,11.18,81.39,81.39,0,0,1,8.88,14.2,94.62,94.62,0,0,1,5.13,12.51,116.62,116.62,0,0,1,3.67,14,149,149,0,0,1,2.2,15.52c.48,5.44.73,11.14.73,17.13q0,7.18-.47,14.2t-1.41,13.86c-.62,4.57-1.41,9.09-2.34,13.57s-2,8.92-3.29,13.32-2.65,8.76-4.22,13.09-3.25,8.57-5.07,12.73-3.77,8.23-5.84,12.22-4.28,7.89-6.61,11.71-4.78,7.55-7.37,11.2-5.29,7.21-8.13,10.69q-5.32,6.51-11,12.36t-11.82,10.95a147.34,147.34,0,0,1-12.6,9.5,138.09,138.09,0,0,1-13.37,8l-14.67,7.63-12.91,6.72-12,6.27-12,6.26-12.9,6.72-14.67,7.63V150.62Z"/><path class="cls-23" d="M387.15,337.22A65,65,0,0,0,400.57,329,73.58,73.58,0,0,0,412.1,317.5a93.59,93.59,0,0,0,9.64-14.61,102.84,102.84,0,0,0,5.7-12.59,109.35,109.35,0,0,0,4.08-13.53A123,123,0,0,0,434,262.24a145.34,145.34,0,0,0,.81-15.58,118.34,118.34,0,0,0-1.45-19.43A65.75,65.75,0,0,0,429,211.82a41.15,41.15,0,0,0-7.24-11.49A31.12,31.12,0,0,0,412.1,193a28.79,28.79,0,0,0-11.53-2.75,41.45,41.45,0,0,0-13.42,1.92l-14.95,4.5-15,4.5V350.87l15-6.82Zm-77.3-186.4,17.37-4.11,15.08-3.57,14.32-3.4,15.08-3.57,17.37-4.11a88.64,88.64,0,0,1,17.65-2.42A71.74,71.74,0,0,1,423,131a66,66,0,0,1,14.89,4.89A64.89,64.89,0,0,1,451,144a68.59,68.59,0,0,1,11,11.18,82.69,82.69,0,0,1,8.88,14.21,97.41,97.41,0,0,1,5.13,12.51,116.13,116.13,0,0,1,3.66,14,146.41,146.41,0,0,1,2.2,15.52c.49,5.44.74,11.14.74,17.13q0,7.19-.47,14.19t-1.41,13.87q-.94,6.86-2.35,13.57t-3.28,13.31q-1.87,6.6-4.22,13.1c-1.56,4.33-3.26,8.57-5.07,12.73s-3.77,8.23-5.84,12.22-4.28,7.89-6.61,11.71-4.79,7.55-7.37,11.2-5.3,7.21-8.14,10.69q-5.33,6.51-11,12.35t-11.82,11a149.84,149.84,0,0,1-12.59,9.5,137.17,137.17,0,0,1-13.37,7.95l-14.67,7.64-12.91,6.72-12,6.26-12,6.26-12.91,6.72-14.67,7.64V150.82Z"/><path class="cls-24" d="M388.14,337.41a64.57,64.57,0,0,0,13.42-8.23,74,74,0,0,0,11.52-11.48,93,93,0,0,0,9.64-14.62,101.27,101.27,0,0,0,5.71-12.58A109.35,109.35,0,0,0,432.51,277,123.32,123.32,0,0,0,435,262.44a142.74,142.74,0,0,0,.82-15.58,118.25,118.25,0,0,0-1.45-19.43A66.73,66.73,0,0,0,430,212a41.08,41.08,0,0,0-7.25-11.5,31,31,0,0,0-9.64-7.31,28.75,28.75,0,0,0-11.52-2.76,41.75,41.75,0,0,0-13.42,1.93l-15,4.5-15,4.5V351.07l15-6.83ZM310.84,151l17.36-4.11,15.08-3.58,14.33-3.39,15.08-3.57,17.36-4.11a88.1,88.1,0,0,1,17.66-2.42A71.74,71.74,0,0,1,424,131.16a65.6,65.6,0,0,1,28,13,67.74,67.74,0,0,1,11,11.18,82.41,82.41,0,0,1,8.89,14.2A96.69,96.69,0,0,1,477,182.1a115.64,115.64,0,0,1,3.67,14,146.41,146.41,0,0,1,2.2,15.52q.74,8.14.73,17.13,0,7.19-.47,14.19t-1.41,13.86q-.93,6.85-2.34,13.58t-3.28,13.31q-1.87,6.6-4.22,13.09t-5.08,12.73q-2.73,6.24-5.84,12.22t-6.6,11.71q-3.5,5.73-7.37,11.21t-8.14,10.68q-5.33,6.53-11,12.36t-11.82,11a150.81,150.81,0,0,1-12.59,9.49,137.42,137.42,0,0,1-13.38,8l-14.67,7.64-12.91,6.72-12,6.26-12,6.26-12.91,6.72-14.67,7.64V151Z"/><path class="cls-25" d="M389.13,337.61a64.93,64.93,0,0,0,13.41-8.23,74.45,74.45,0,0,0,11.53-11.48,94.16,94.16,0,0,0,9.64-14.62,102.75,102.75,0,0,0,5.71-12.58,107.28,107.28,0,0,0,4.07-13.54,120.78,120.78,0,0,0,2.45-14.52,145.57,145.57,0,0,0,.82-15.58,119.49,119.49,0,0,0-1.45-19.44,66.79,66.79,0,0,0-4.35-15.4,41.31,41.31,0,0,0-7.25-11.5,31.08,31.08,0,0,0-9.64-7.31,28.79,28.79,0,0,0-11.53-2.76,41.42,41.42,0,0,0-13.41,1.93l-15,4.5-15,4.5V351.27l15-6.83Zm-77.3-186.4,17.36-4.11,15.08-3.57,14.32-3.39,15.09-3.57L391,132.45A88,88,0,0,1,408.7,130,71.65,71.65,0,0,1,425,131.36a66,66,0,0,1,14.9,4.88A64.42,64.42,0,0,1,453,144.4a67.4,67.4,0,0,1,11,11.18,81.77,81.77,0,0,1,8.88,14.2A94.21,94.21,0,0,1,478,182.3a116,116,0,0,1,3.67,14,147.2,147.2,0,0,1,2.19,15.52q.74,8.16.74,17.13c0,4.8-.16,9.52-.47,14.2s-.78,9.29-1.41,13.86-1.41,9.09-2.34,13.57-2,8.92-3.29,13.32-2.66,8.76-4.22,13.09-3.25,8.57-5.07,12.73-3.77,8.23-5.84,12.22-4.28,7.89-6.61,11.71-4.78,7.55-7.37,11.2-5.29,7.21-8.13,10.69q-5.34,6.53-11.05,12.36t-11.81,11a149.32,149.32,0,0,1-12.6,9.49,139.3,139.3,0,0,1-13.37,8l-14.67,7.64-12.91,6.72-12,6.26-12,6.26-12.91,6.72-14.66,7.63V151.21Z"/><path class="cls-26" d="M390.11,337.81a65.44,65.44,0,0,0,13.42-8.23,74.08,74.08,0,0,0,11.53-11.49,94.3,94.3,0,0,0,9.64-14.61,102.16,102.16,0,0,0,5.7-12.59,109.35,109.35,0,0,0,4.08-13.53,122.62,122.62,0,0,0,2.45-14.53,145.28,145.28,0,0,0,.81-15.57,118.38,118.38,0,0,0-1.45-19.44,65.67,65.67,0,0,0-4.35-15.4,41.06,41.06,0,0,0-7.24-11.5,31.39,31.39,0,0,0-9.64-7.32,28.79,28.79,0,0,0-11.53-2.75,41.45,41.45,0,0,0-13.42,1.92l-14.95,4.5-15,4.5v149.7l15-6.83Zm-77.3-186.4,17.36-4.11,15.09-3.57,14.32-3.39,15.08-3.58L392,132.65a87.87,87.87,0,0,1,17.65-2.41A70.62,70.62,0,0,1,426,131.56a65.43,65.43,0,0,1,28,13,68.59,68.59,0,0,1,11,11.18A83.08,83.08,0,0,1,473.88,170,97.41,97.41,0,0,1,479,182.49a118.54,118.54,0,0,1,3.66,14,146.41,146.41,0,0,1,2.2,15.52c.49,5.44.73,11.14.73,17.13q0,7.19-.47,14.2t-1.4,13.86q-.94,6.85-2.35,13.57t-3.28,13.32q-1.87,6.6-4.22,13.09T468.8,309.9q-2.71,6.24-5.84,12.22t-6.6,11.71q-3.5,5.73-7.37,11.2t-8.14,10.69q-5.33,6.51-11,12.36T418,379a147.2,147.2,0,0,1-12.59,9.5,140.54,140.54,0,0,1-13.37,8l-14.67,7.63-12.91,6.72-12,6.26-12,6.27-12.91,6.72-14.67,7.63V151.41Z"/><path class="cls-27" d="M391.1,338a65,65,0,0,0,13.42-8.24A74,74,0,0,0,416,318.29a93.69,93.69,0,0,0,9.64-14.62,100.61,100.61,0,0,0,5.71-12.58,109.35,109.35,0,0,0,4.08-13.53A123.32,123.32,0,0,0,437.91,263a142.74,142.74,0,0,0,.82-15.58A118.34,118.34,0,0,0,437.28,228a66.73,66.73,0,0,0-4.35-15.41,41.08,41.08,0,0,0-7.25-11.5A31.24,31.24,0,0,0,416,193.8,28.91,28.91,0,0,0,404.52,191,41.75,41.75,0,0,0,391.1,193l-15,4.5-15,4.5V351.66l15-6.82Zm-77.3-186.4,17.36-4.11,15.08-3.57,14.33-3.4L375.65,137,393,132.85a88.73,88.73,0,0,1,17.66-2.42,71.65,71.65,0,0,1,16.27,1.32,66,66,0,0,1,14.9,4.89A64.82,64.82,0,0,1,455,144.79,67.79,67.79,0,0,1,466,156a81.48,81.48,0,0,1,8.88,14.21A94.62,94.62,0,0,1,480,182.69a116.13,116.13,0,0,1,3.67,14,146.41,146.41,0,0,1,2.2,15.52q.74,8.15.73,17.13,0,7.18-.47,14.19t-1.41,13.87q-.93,6.86-2.34,13.57t-3.28,13.31c-1.26,4.4-2.66,8.77-4.23,13.09s-3.25,8.58-5.07,12.74S466,318.33,464,322.31s-4.27,7.9-6.6,11.71-4.79,7.56-7.37,11.21-5.3,7.21-8.14,10.68q-5.32,6.52-11,12.36t-11.82,11a153.16,153.16,0,0,1-12.59,9.5A137.32,137.32,0,0,1,393,396.68l-14.67,7.64L365.43,411l-12,6.26-12,6.26-12.91,6.72-14.67,7.64V151.61Z"/><path class="cls-28" d="M392.09,338.2A64.93,64.93,0,0,0,405.5,330,74,74,0,0,0,417,318.49a93.69,93.69,0,0,0,9.64-14.62,102.75,102.75,0,0,0,5.71-12.58,107.28,107.28,0,0,0,4.07-13.54,120.78,120.78,0,0,0,2.45-14.52,145.47,145.47,0,0,0,.81-15.58,118.17,118.17,0,0,0-1.45-19.43,66.25,66.25,0,0,0-4.34-15.41,41.31,41.31,0,0,0-7.25-11.5A31.08,31.08,0,0,0,417,194a28.79,28.79,0,0,0-11.53-2.76,41.69,41.69,0,0,0-13.41,1.93l-15,4.5-15,4.5V351.86l15-6.83ZM314.78,151.81l17.37-4.12,15.08-3.57,14.32-3.39,15.09-3.57L394,133.05a88,88,0,0,1,17.66-2.42A71.65,71.65,0,0,1,427.93,132a65.31,65.31,0,0,1,14.89,4.89A64.61,64.61,0,0,1,456,145a68.19,68.19,0,0,1,11,11.18,82.37,82.37,0,0,1,8.88,14.2A98.15,98.15,0,0,1,481,182.89a114.13,114.13,0,0,1,3.66,14,147.16,147.16,0,0,1,2.2,15.52q.74,8.16.74,17.14,0,7.18-.47,14.19c-.32,4.67-.78,9.29-1.41,13.86s-1.41,9.1-2.35,13.57-2,8.92-3.28,13.32-2.66,8.76-4.22,13.09-3.25,8.57-5.07,12.73-3.77,8.23-5.84,12.22-4.28,7.89-6.61,11.71-4.78,7.56-7.37,11.2-5.3,7.22-8.14,10.69q-5.32,6.52-11,12.36t-11.81,11a149.32,149.32,0,0,1-12.6,9.49,137.27,137.27,0,0,1-13.37,8l-14.67,7.64-12.91,6.72-12,6.26-12,6.26-12.91,6.72-14.67,7.64V151.81Z"/><path class="cls-29" d="M393.07,338.4a65,65,0,0,0,13.42-8.23A74.08,74.08,0,0,0,418,318.68a94.3,94.3,0,0,0,9.64-14.61,102.7,102.7,0,0,0,5.7-12.58A109.5,109.5,0,0,0,437.44,278a122.79,122.79,0,0,0,2.45-14.52,145.61,145.61,0,0,0,.81-15.58,118.38,118.38,0,0,0-1.45-19.44A66.79,66.79,0,0,0,434.9,213a41.29,41.29,0,0,0-7.24-11.5,31.39,31.39,0,0,0-9.64-7.32,29,29,0,0,0-11.53-2.75,41.47,41.47,0,0,0-13.42,1.93l-15,4.5-14.95,4.5V352.06l14.95-6.83ZM315.77,152l17.36-4.11,15.09-3.57,14.32-3.39,15.08-3.57L395,133.24a87.87,87.87,0,0,1,17.65-2.41,71.18,71.18,0,0,1,16.28,1.32A65.94,65.94,0,0,1,443.81,137,64.76,64.76,0,0,1,457,145.19a68.19,68.19,0,0,1,11,11.18,83,83,0,0,1,8.88,14.2A97,97,0,0,1,482,183.09a117.86,117.86,0,0,1,3.66,14,146.78,146.78,0,0,1,2.2,15.52c.49,5.44.73,11.14.73,17.13q0,7.18-.47,14.2t-1.4,13.86q-.94,6.86-2.35,13.57t-3.28,13.32q-1.87,6.6-4.22,13.09t-5.08,12.73q-2.73,6.24-5.84,12.22t-6.6,11.71q-3.49,5.73-7.37,11.2t-8.14,10.69q-5.32,6.53-11,12.36t-11.82,11a149.18,149.18,0,0,1-12.59,9.49,140.54,140.54,0,0,1-13.37,8l-14.67,7.63-12.91,6.72-12,6.27-12,6.26-12.91,6.72-14.67,7.63V152Z"/><path class="cls-13" d="M394.06,338.6a65.1,65.1,0,0,0,13.41-8.23A74.08,74.08,0,0,0,419,318.88a93.59,93.59,0,0,0,9.64-14.61,101.41,101.41,0,0,0,5.71-12.59,109.35,109.35,0,0,0,4.08-13.53,122.63,122.63,0,0,0,2.44-14.53,142.74,142.74,0,0,0,.82-15.58,119.45,119.45,0,0,0-1.45-19.43,66.5,66.5,0,0,0-4.35-15.4,41.08,41.08,0,0,0-7.25-11.5,31.12,31.12,0,0,0-9.64-7.32,28.79,28.79,0,0,0-11.53-2.75,41.43,41.43,0,0,0-13.41,1.92l-15,4.5-15,4.5v149.7l15-6.83Zm-77.3-186.4,17.36-4.11,15.08-3.57,14.32-3.4,15.09-3.57L396,133.44A88,88,0,0,1,413.63,131a71.09,71.09,0,0,1,16.27,1.31,66,66,0,0,1,14.9,4.89,64.82,64.82,0,0,1,13.13,8.15,67.79,67.79,0,0,1,11,11.18,81.86,81.86,0,0,1,8.88,14.21A94.62,94.62,0,0,1,483,183.28a116.62,116.62,0,0,1,3.67,14,149,149,0,0,1,2.2,15.52c.49,5.44.73,11.14.73,17.13q0,7.19-.47,14.19T487.67,258q-.93,6.86-2.34,13.57T482,284.87q-1.87,6.6-4.22,13.09t-5.07,12.73q-2.73,6.24-5.84,12.22t-6.6,11.71q-3.49,5.73-7.38,11.2t-8.13,10.69q-5.32,6.51-11,12.35t-11.82,11a149.45,149.45,0,0,1-12.6,9.5,138.09,138.09,0,0,1-13.37,8l-14.67,7.63-12.91,6.72-12,6.26-12,6.26-12.9,6.72-14.67,7.64V152.2Z"/><path class="cls-30" d="M395.05,338.8a65.24,65.24,0,0,0,13.41-8.24A74,74,0,0,0,420,319.08a93.69,93.69,0,0,0,9.64-14.62,104.28,104.28,0,0,0,5.71-12.58,109.32,109.32,0,0,0,4.07-13.53,123.31,123.31,0,0,0,2.45-14.53,145.34,145.34,0,0,0,.81-15.58,118.25,118.25,0,0,0-1.45-19.43,66.25,66.25,0,0,0-4.34-15.41,41.31,41.31,0,0,0-7.25-11.5,31.08,31.08,0,0,0-9.64-7.31,29,29,0,0,0-11.53-2.76,41.65,41.65,0,0,0-13.41,1.93l-15,4.5-15,4.5V352.45l15-6.83ZM317.74,152.4l17.37-4.11,15.08-3.58,14.32-3.39,15.08-3.57L397,133.64a87.91,87.91,0,0,1,17.66-2.42,71.65,71.65,0,0,1,16.27,1.32,65.47,65.47,0,0,1,14.89,4.89,64.61,64.61,0,0,1,13.14,8.15,68.19,68.19,0,0,1,11,11.18,83,83,0,0,1,8.88,14.2,98.15,98.15,0,0,1,5.13,12.52,115.64,115.64,0,0,1,3.66,14A146.41,146.41,0,0,1,489.8,213q.74,8.14.74,17.13,0,7.19-.47,14.19c-.32,4.68-.79,9.29-1.41,13.86s-1.41,9.1-2.35,13.58-2,8.91-3.28,13.31-2.66,8.76-4.22,13.09-3.25,8.58-5.07,12.73-3.77,8.23-5.84,12.22-4.28,7.89-6.61,11.71-4.78,7.56-7.37,11.21-5.3,7.21-8.14,10.68q-5.32,6.53-11,12.36t-11.81,11a149.32,149.32,0,0,1-12.6,9.49,135.3,135.3,0,0,1-13.37,8l-14.67,7.64-12.91,6.72-12,6.26-12,6.26-12.91,6.72-14.67,7.64V152.4Z"/><path class="cls-31" d="M396,339a65,65,0,0,0,13.42-8.23A74,74,0,0,0,421,319.28a93.73,93.73,0,0,0,9.65-14.62,102.7,102.7,0,0,0,5.7-12.58,109,109,0,0,0,4.08-13.54A120.78,120.78,0,0,0,442.84,264a142.88,142.88,0,0,0,.82-15.58A118.17,118.17,0,0,0,442.21,229a66.73,66.73,0,0,0-4.35-15.41,41.29,41.29,0,0,0-7.24-11.5,31.12,31.12,0,0,0-9.65-7.31A28.75,28.75,0,0,0,409.45,192,41.47,41.47,0,0,0,396,194l-15,4.5L366.12,203V352.65l14.95-6.83ZM318.73,152.6l17.36-4.12,15.09-3.57,14.32-3.39L380.58,138,398,133.83a88.6,88.6,0,0,1,17.65-2.41,71.74,71.74,0,0,1,16.28,1.32,65.6,65.6,0,0,1,28,13,67.74,67.74,0,0,1,11,11.18,82.41,82.41,0,0,1,8.89,14.2,97,97,0,0,1,5.13,12.52,117.86,117.86,0,0,1,3.66,14,147.16,147.16,0,0,1,2.2,15.52q.73,8.16.73,17.13,0,7.2-.47,14.2t-1.4,13.86q-.94,6.86-2.35,13.57T484,285.26q-1.87,6.6-4.22,13.09t-5.08,12.73q-2.73,6.24-5.84,12.22T462.28,335q-3.5,5.73-7.37,11.2t-8.14,10.69q-5.32,6.53-11,12.36t-11.82,11a150.81,150.81,0,0,1-12.59,9.49,138.47,138.47,0,0,1-13.37,8l-14.67,7.64L370.37,412l-12,6.26-12,6.26-12.91,6.72-14.67,7.63V152.6Z"/><path class="cls-32" d="M397,339.19A64.67,64.67,0,0,0,410.43,331,74.08,74.08,0,0,0,422,319.47a93.59,93.59,0,0,0,9.64-14.61,100.75,100.75,0,0,0,5.71-12.59,107.63,107.63,0,0,0,4.07-13.53,120.61,120.61,0,0,0,2.45-14.53,145.24,145.24,0,0,0,.82-15.57,119.49,119.49,0,0,0-1.45-19.44,66.64,66.64,0,0,0-4.35-15.4,41.08,41.08,0,0,0-7.25-11.5A31.27,31.27,0,0,0,422,195a28.79,28.79,0,0,0-11.53-2.75A41.43,41.43,0,0,0,397,194.15l-15,4.51-15,4.5V352.85l15-6.83Zm-77.3-186.4,17.36-4.11,15.08-3.57,14.32-3.39,15.09-3.58L398.93,134a88,88,0,0,1,17.66-2.41,70.53,70.53,0,0,1,16.27,1.32,66,66,0,0,1,14.9,4.88A64.42,64.42,0,0,1,460.89,146a67.4,67.4,0,0,1,11,11.18,81.39,81.39,0,0,1,8.88,14.2,94.62,94.62,0,0,1,5.13,12.51,116.62,116.62,0,0,1,3.67,14,149,149,0,0,1,2.2,15.52c.48,5.44.73,11.14.73,17.13q0,7.19-.47,14.2t-1.41,13.86c-.62,4.57-1.41,9.09-2.34,13.57s-2,8.92-3.29,13.32-2.65,8.76-4.22,13.09-3.25,8.57-5.07,12.73-3.77,8.23-5.84,12.22-4.28,7.89-6.61,11.71-4.78,7.55-7.37,11.2-5.29,7.21-8.13,10.69q-5.33,6.51-11,12.36t-11.82,11a147.34,147.34,0,0,1-12.6,9.5,138.09,138.09,0,0,1-13.37,8l-14.67,7.63-12.91,6.72-12,6.27-12,6.26-12.9,6.72-14.67,7.63V152.79Z"/><path class="cls-33" d="M398,339.39a65,65,0,0,0,13.42-8.24A73.58,73.58,0,0,0,423,319.67a93.59,93.59,0,0,0,9.64-14.61,102.84,102.84,0,0,0,5.7-12.59,109.35,109.35,0,0,0,4.08-13.53,123,123,0,0,0,2.45-14.53,145.34,145.34,0,0,0,.81-15.58,118.34,118.34,0,0,0-1.45-19.43A65.75,65.75,0,0,0,439.83,214a41.15,41.15,0,0,0-7.24-11.49,31.12,31.12,0,0,0-9.64-7.32,28.79,28.79,0,0,0-11.53-2.75A41.45,41.45,0,0,0,398,194.35l-14.95,4.5-15,4.5V353l15-6.82ZM320.7,153l17.37-4.11,15.08-3.57,14.32-3.4,15.08-3.57,17.37-4.11a88.64,88.64,0,0,1,17.65-2.42,71.74,71.74,0,0,1,16.28,1.32A66,66,0,0,1,448.74,138a64.89,64.89,0,0,1,13.14,8.15,68.59,68.59,0,0,1,11,11.18,82.69,82.69,0,0,1,8.88,14.21,97.41,97.41,0,0,1,5.13,12.51,116.13,116.13,0,0,1,3.66,14,146.41,146.41,0,0,1,2.2,15.52c.49,5.44.74,11.14.74,17.13q0,7.18-.47,14.19t-1.41,13.87q-.94,6.86-2.35,13.57T486,285.65q-1.87,6.6-4.22,13.1c-1.56,4.33-3.26,8.57-5.07,12.73s-3.77,8.23-5.84,12.22-4.28,7.89-6.61,11.71-4.79,7.55-7.37,11.2-5.3,7.21-8.14,10.69q-5.33,6.51-11,12.35t-11.82,11a149.84,149.84,0,0,1-12.59,9.5,137.17,137.17,0,0,1-13.37,7.95l-14.67,7.64-12.91,6.72-12,6.26-12,6.26-12.91,6.72L320.7,439.3V153Z"/><path class="cls-34" d="M399,339.58a64.57,64.57,0,0,0,13.42-8.23,74,74,0,0,0,11.52-11.48,93,93,0,0,0,9.64-14.62,101.27,101.27,0,0,0,5.71-12.58,109.35,109.35,0,0,0,4.08-13.53,123.32,123.32,0,0,0,2.44-14.53,142.74,142.74,0,0,0,.82-15.58,118.25,118.25,0,0,0-1.45-19.43,66.73,66.73,0,0,0-4.35-15.41,41.08,41.08,0,0,0-7.25-11.5,31,31,0,0,0-9.64-7.31,28.75,28.75,0,0,0-11.52-2.76A41.75,41.75,0,0,0,399,194.55l-15,4.5-15,4.5V353.24l15-6.83Zm-77.3-186.39,17.36-4.11,15.08-3.58,14.33-3.39,15.08-3.57,17.36-4.11A88.1,88.1,0,0,1,418.56,132a71.74,71.74,0,0,1,16.28,1.32,65.6,65.6,0,0,1,28,13,67.74,67.74,0,0,1,11,11.18,82.41,82.41,0,0,1,8.89,14.2,96.69,96.69,0,0,1,5.12,12.52,115.64,115.64,0,0,1,3.67,14,146.41,146.41,0,0,1,2.2,15.52q.74,8.15.73,17.13,0,7.18-.47,14.19T492.6,259q-.93,6.85-2.34,13.58T487,285.85q-1.87,6.6-4.22,13.09t-5.08,12.73q-2.73,6.24-5.84,12.22t-6.6,11.71q-3.5,5.73-7.37,11.21t-8.14,10.68q-5.33,6.52-11,12.36t-11.82,11a150.81,150.81,0,0,1-12.59,9.49,137.42,137.42,0,0,1-13.38,8l-14.67,7.64-12.91,6.72-12,6.26-12,6.26-12.91,6.72-14.67,7.64V153.19Z"/><path class="cls-35" d="M400,339.78a64.93,64.93,0,0,0,13.41-8.23,74.45,74.45,0,0,0,11.53-11.48,94.16,94.16,0,0,0,9.64-14.62,102.75,102.75,0,0,0,5.71-12.58,107.28,107.28,0,0,0,4.07-13.54,120.78,120.78,0,0,0,2.45-14.52,145.57,145.57,0,0,0,.82-15.58,119.49,119.49,0,0,0-1.45-19.44,66.79,66.79,0,0,0-4.35-15.4,41.31,41.31,0,0,0-7.25-11.5,31.08,31.08,0,0,0-9.64-7.31,28.79,28.79,0,0,0-11.53-2.76A41.42,41.42,0,0,0,400,194.75l-15,4.5-15,4.5V353.44l15-6.83Zm-77.3-186.4L340,149.27l15.08-3.57,14.32-3.39,15.09-3.57,17.36-4.12a88,88,0,0,1,17.66-2.41,71.65,71.65,0,0,1,16.27,1.32,66,66,0,0,1,14.9,4.88,64.42,64.42,0,0,1,13.13,8.16,67.4,67.4,0,0,1,11,11.18,81.77,81.77,0,0,1,8.88,14.2,94.21,94.21,0,0,1,5.13,12.52,116,116,0,0,1,3.67,14A147.2,147.2,0,0,1,494.73,214q.74,8.16.74,17.13c0,4.8-.16,9.52-.47,14.2s-.78,9.29-1.41,13.86-1.41,9.09-2.34,13.57-2,8.92-3.29,13.32-2.66,8.76-4.22,13.09-3.25,8.57-5.07,12.73-3.77,8.23-5.84,12.22-4.28,7.89-6.61,11.71-4.78,7.55-7.37,11.2-5.29,7.21-8.13,10.69q-5.34,6.53-11.05,12.36t-11.81,11a149.32,149.32,0,0,1-12.6,9.49,139.3,139.3,0,0,1-13.37,8l-14.67,7.64-12.91,6.72-12,6.26-12,6.26-12.91,6.72-14.66,7.63V153.38Z"/><path class="cls-36" d="M401,340a65.44,65.44,0,0,0,13.42-8.23,74.08,74.08,0,0,0,11.53-11.49,94.3,94.3,0,0,0,9.64-14.61,102.16,102.16,0,0,0,5.7-12.59,109.35,109.35,0,0,0,4.08-13.53A122.62,122.62,0,0,0,447.78,265a145.28,145.28,0,0,0,.81-15.57A118.38,118.38,0,0,0,447.14,230a65.67,65.67,0,0,0-4.35-15.4,41.06,41.06,0,0,0-7.24-11.5,31.39,31.39,0,0,0-9.64-7.32A28.79,28.79,0,0,0,414.38,193,41.45,41.45,0,0,0,401,194.94L386,199.44l-15,4.5v149.7l15-6.83Zm-77.3-186.4L341,149.47l15.09-3.57,14.32-3.39,15.08-3.58,17.37-4.11a87.87,87.87,0,0,1,17.65-2.41,70.62,70.62,0,0,1,16.28,1.32,65.44,65.44,0,0,1,14.89,4.88,64.49,64.49,0,0,1,13.14,8.16,68.12,68.12,0,0,1,11,11.17,83.08,83.08,0,0,1,8.88,14.21,97.41,97.41,0,0,1,5.13,12.51,118.54,118.54,0,0,1,3.66,14,146.41,146.41,0,0,1,2.2,15.52c.49,5.44.73,11.14.73,17.13q0,7.19-.47,14.2t-1.4,13.86q-.94,6.86-2.35,13.57T489,286.25q-1.87,6.6-4.22,13.09t-5.08,12.73q-2.72,6.24-5.84,12.22T467.21,336q-3.49,5.73-7.37,11.2t-8.14,10.69q-5.32,6.51-11,12.36T428.84,381.2a147.2,147.2,0,0,1-12.59,9.5,140.54,140.54,0,0,1-13.37,8l-14.67,7.63L375.3,413l-12,6.26-12,6.27-12.91,6.72-14.67,7.63V153.58Z"/><path class="cls-22" d="M402,340.18a65,65,0,0,0,13.42-8.24,74,74,0,0,0,11.52-11.48,93.69,93.69,0,0,0,9.64-14.62,100.61,100.61,0,0,0,5.71-12.58,109.35,109.35,0,0,0,4.08-13.53,123.32,123.32,0,0,0,2.44-14.53,142.74,142.74,0,0,0,.82-15.58,118.34,118.34,0,0,0-1.45-19.43,66.73,66.73,0,0,0-4.35-15.41,41.08,41.08,0,0,0-7.25-11.5,31.24,31.24,0,0,0-9.64-7.31,28.91,28.91,0,0,0-11.52-2.76A41.75,41.75,0,0,0,402,195.14l-15,4.5-15,4.5V353.83L387,347Zm-77.3-186.4L342,149.67l15.08-3.57,14.33-3.4,15.08-3.57L403.86,135a88.73,88.73,0,0,1,17.66-2.42,71.65,71.65,0,0,1,16.27,1.32,66,66,0,0,1,14.9,4.89A64.82,64.82,0,0,1,465.82,147a67.79,67.79,0,0,1,11,11.18,81.48,81.48,0,0,1,8.88,14.21,94.62,94.62,0,0,1,5.13,12.51,116.13,116.13,0,0,1,3.67,14,146.41,146.41,0,0,1,2.2,15.52q.74,8.15.73,17.13,0,7.19-.47,14.19t-1.41,13.87q-.93,6.85-2.34,13.57t-3.28,13.31c-1.26,4.4-2.66,8.77-4.23,13.09s-3.25,8.58-5.07,12.74-3.76,8.23-5.84,12.21-4.27,7.9-6.6,11.71-4.79,7.56-7.37,11.21-5.3,7.21-8.14,10.68q-5.32,6.53-11,12.36t-11.82,11a153.16,153.16,0,0,1-12.59,9.5,137.32,137.32,0,0,1-13.38,8l-14.67,7.64-12.91,6.72-12,6.26-12,6.26-12.91,6.72-14.67,7.64V153.78Z"/></g></g></svg>